<?xml version="1.0" encoding="UTF-8"?>
<svg width="287px" height="51px" viewBox="0 0 287 51" version="1.1" xmlns="http://www.w3.org/2000/svg" xmlns:xlink="http://www.w3.org/1999/xlink">
    <title>Group 61</title>
    <defs>
        <polygon id="path-1" points="0.28713 0.0822 19.80063 0.0822 19.80063 29.5125 0.28713 29.5125"></polygon>
        <polygon id="path-3" points="0.23076 0.0822 31.66776 0.0822 31.66776 30.0066 0.23076 30.0066"></polygon>
        <polygon id="path-5" points="0.23088 0.27585 19.0116 0.27585 19.0116 29.21235 0.23088 29.21235"></polygon>
        <polygon id="path-7" points="0.04272 0.27999 1.84212 0.27999 1.84212 11.4 0.04272 11.4"></polygon>
    </defs>
    <g id="Page-1" stroke="none" stroke-width="1" fill="none" fill-rule="evenodd">
        <g id="hp-hovers-2" transform="translate(-1074.000000, -55.000000)">
            <g id="Group-61" transform="translate(0.000000, 40.000000)">
                <g transform="translate(1074.000000, 15.000000)">
                    <path d="M0,26.14758 L10.6437,26.14758 C13.5111,26.14758 15.1062,25.09938 15.429,23.00298 C15.429,21.81378 15.087,20.82258 14.4036,20.02938 C13.7199,19.23678 12.7119,18.53448 11.3799,17.92308 C9.9984,17.27808 8.6049,16.62138 7.1991,15.95268 C5.7933,15.28398 4.5855,14.59878 3.576,13.89648 C2.5662,13.19448 1.7619,12.35958 1.1622,11.39178 C0.5628,10.42428 0.2628,9.29898 0.2628,8.01558 C0.2628,6.46998 0.6432,5.15628 1.404,4.07448 C2.1648,2.99268 3.1323,2.18298 4.3068,1.64538 C5.4813,1.10778 6.6612,0.83928 7.8459,0.83928 L18.1845,0.83928 L18.1845,4.46748 L7.8459,4.46748 C6.7242,4.46748 5.8512,4.79508 5.2272,5.45028 C4.6029,6.10518 4.2699,6.90678 4.2279,7.85388 C4.3191,9.00318 4.7925,9.85638 5.6478,10.41438 C6.5736,11.03928 7.4778,11.57328 8.3613,12.01668 C9.2448,12.46038 10.2912,12.95088 11.5008,13.48848 C12.7101,14.02608 13.5744,14.43228 14.0934,14.70768 C17.6829,16.74378 19.4781,19.29078 19.4781,22.34778 C19.4781,23.49678 19.2168,24.63558 18.6945,25.76478 C18.1722,26.89338 17.2749,27.84408 16.002,28.61688 C14.7294,29.38968 13.0449,29.77608 10.9485,29.77608 L0,29.77608 L0,26.14758 Z" id="Fill-1" fill="#70BE47"></path>
                    <polygon id="Fill-3" fill="#70BE47" points="24.94293 4.4676 24.94293 0.8391 43.94793 0.8391 43.94793 4.4676 36.49083 4.4676 36.49083 29.7759 32.44173 29.7759 32.44173 4.4676"></polygon>
                    <path d="M53.55618,14.78862 C53.55618,16.39482 53.83848,17.90142 54.40338,19.30872 C54.96798,20.71692 55.78008,21.96822 56.83908,23.06352 C57.89838,24.15852 59.11908,25.02042 60.50088,25.64862 C61.88268,26.27712 63.38748,26.63472 65.01498,26.72202 C66.47388,26.72202 68.09778,26.33382 69.88668,25.55772 C71.67528,24.78192 73.23108,23.53362 74.55318,21.81372 C75.87528,20.09382 76.56108,17.92992 76.61028,15.32262 C76.61028,13.38762 76.14918,11.54802 75.22638,9.80442 C74.30418,8.06082 72.95388,6.65322 71.17548,5.58162 C69.39738,4.50972 67.31568,3.97362 64.93098,3.97362 C63.42948,3.97362 61.98798,4.25742 60.60618,4.82532 C59.22438,5.39352 57.99858,6.18792 56.92878,7.20912 C55.85868,8.23062 55.02948,9.38952 54.43998,10.68642 C53.85078,11.98302 53.55618,13.35072 53.55618,14.78862 M49.24428,14.78862 C49.26528,12.77952 49.71588,10.90152 50.59608,9.15432 C51.47598,7.40742 52.65288,5.88552 54.12558,4.58862 C55.59858,3.29202 57.24708,2.27532 59.07048,1.53972 C60.89418,0.80382 62.73198,0.40602 64.58358,0.34512 C66.43398,0.34512 68.27928,0.63942 70.11918,1.22712 C71.95908,1.81542 73.66578,2.72052 75.23928,3.94362 C76.81308,5.16672 78.10248,6.72702 79.10868,8.62512 C80.11428,10.52352 80.68728,12.70212 80.82768,15.16152 C80.82768,17.01612 80.44398,18.84522 79.67628,20.64942 C78.90888,22.45362 77.81898,24.08292 76.40658,25.53792 C74.99418,26.99262 73.33308,28.14492 71.42328,28.99482 C69.51318,29.84502 67.47888,30.26982 65.32008,30.26982 L65.27808,30.26982 C63.22998,30.24972 61.25208,29.89212 59.34438,29.19642 C57.43638,28.50102 55.71618,27.48282 54.18378,26.14272 C52.65108,24.80202 51.44448,23.16942 50.56458,21.24432 C49.68438,19.31922 49.24428,17.16732 49.24428,14.78862" id="Fill-5" fill="#70BE47"></path>
                    <path d="M88.15416,29.85657 L88.15416,11.65377 C88.15416,8.04567 88.97436,5.31267 90.61536,3.45447 C92.25576,1.59687 94.76616,0.58737 98.14566,0.42567 C99.84216,0.42567 101.39016,0.76197 102.78906,1.43367 C104.18796,2.10537 105.30096,3.06927 106.12836,4.32537 C106.95546,5.58177 107.38326,7.04607 107.41146,8.71857 C107.41146,10.06887 107.11506,11.31657 106.52256,12.46227 C105.93006,13.60737 105.07656,14.46537 103.96146,15.03657 C105.31476,15.54027 106.30356,16.26297 106.92756,17.20407 C107.55156,18.14487 107.88456,19.34817 107.92686,20.81307 L107.92686,29.77587 L103.87776,29.77587 L103.87776,21.55497 C103.61796,18.63657 101.79516,17.17707 98.40846,17.17707 L93.97026,17.17707 L93.97026,13.54887 L97.58796,13.54887 C99.06066,13.54887 100.39116,13.14927 101.57946,12.34947 C102.76806,11.54997 103.36206,10.34037 103.36206,8.72097 C103.36206,7.19577 102.82056,6.03687 101.73726,5.24367 C100.65396,4.45077 99.42876,4.05417 98.06136,4.05417 C96.77826,4.05417 95.69316,4.32807 94.80636,4.87557 C93.91926,5.42367 93.26376,6.13047 92.83956,6.99747 C92.41536,7.86417 92.20356,8.76807 92.20356,9.70887 L92.20356,29.85657 L88.15416,29.85657 Z" id="Fill-7" fill="#70BE47"></path>
                    <path d="M115.32672,0.83919 L119.37582,0.83919 L119.37582,9.96069 C119.48802,11.33139 120.00492,12.47889 120.92712,13.40259 C121.84902,14.32659 123.33042,14.78859 125.37072,14.78859 C126.77292,14.74149 127.88262,14.43579 128.69952,13.87119 C129.51612,13.30689 130.07712,12.65529 130.38222,11.91609 C130.68732,11.17689 130.83972,10.47129 130.83972,9.79929 L130.83972,0.83919 L134.88882,0.83919 L134.88882,10.00089 C134.82582,11.53989 134.41722,12.90729 133.66362,14.10309 C132.90972,15.29919 131.95272,16.26009 130.79232,16.98579 C129.63192,17.71149 128.41392,18.19209 127.13772,18.42699 L127.13772,29.77599 L123.00432,29.77599 L123.00432,18.42699 C121.05222,17.97039 119.30592,17.06829 117.76452,15.72069 C116.22372,14.37369 115.41102,12.34299 115.32672,9.62799 L115.32672,0.83919 Z" id="Fill-9" fill="#70BE47"></path>
                    <g id="Group-13" transform="translate(143.400000, 0.217800)">
                        <mask id="mask-2" fill="white">
                            <use xlink:href="#path-1"></use>
                        </mask>
                        <g id="Clip-12"></g>
                        <path d="M0.28713,29.5125 L0.28713,9.8181 C0.28713,7.9032 0.73203,6.2097 1.62183,4.7385 C2.51163,3.2667 3.69993,2.1315 5.18643,1.3317 C6.67293,0.5319 8.28483,0.1155 10.02273,0.0819 C11.60703,0.0819 13.14933,0.4365 14.64993,1.1454 C16.15053,1.8546 17.38383,2.9127 18.35073,4.32 C19.31733,5.7282 19.80063,7.4091 19.80063,9.3645 C19.80063,11.1585 19.39353,12.7563 18.58083,14.1573 C17.76783,15.5583 16.73103,16.6365 15.47163,17.3925 C14.21193,18.1488 12.95073,18.5268 11.68743,18.5268 L5.90883,18.5268 L5.90883,14.898 L10.31613,14.898 C12.33993,14.898 13.75503,14.2899 14.56083,13.074 C15.36723,11.8575 15.77013,10.6212 15.77013,9.3645 C15.77013,8.5317 15.60453,7.6881 15.27273,6.8349 C14.94153,5.9817 14.34633,5.2476 13.48803,4.6323 C12.62973,4.0179 11.47443,3.7101 10.02273,3.7101 C7.89393,3.7101 6.41103,4.3587 5.57373,5.6556 C4.73613,6.9528 4.31763,8.3667 4.31763,9.8988 L4.31763,29.5125 L0.28713,29.5125 Z" id="Fill-11" fill="#010202" mask="url(#mask-2)"></path>
                    </g>
                    <polygon id="Fill-14" fill="#010202" points="170.27316 29.7303 170.27316 0.7128 174.26166 0.7128 174.26166 12.8079 187.25316 12.8079 187.25316 0.6222 191.36706 0.6222 191.36706 29.7303 187.25316 29.7303 187.25316 16.4361 174.26166 16.4361 174.26166 29.7303"></polygon>
                    <g id="Group-18" transform="translate(198.900000, 0.217800)">
                        <mask id="mask-4" fill="white">
                            <use xlink:href="#path-3"></use>
                        </mask>
                        <g id="Clip-17"></g>
                        <path d="M4.52286,14.5254 C4.52286,16.1316 4.80396,17.6379 5.36616,19.0452 C5.92806,20.4534 6.73626,21.705 7.79046,22.8 C8.84466,23.895 10.05966,24.7569 11.43516,25.3851 C12.81066,26.0139 14.30856,26.3712 15.92856,26.4585 C17.38026,26.4585 18.99696,26.0706 20.77776,25.2942 C22.55796,24.5187 24.10626,23.2704 25.42236,21.5502 C26.73846,19.8306 27.42096,17.6667 27.46986,15.0591 C27.46986,13.1244 27.01086,11.2845 26.09256,9.5409 C25.17456,7.7976 23.83026,6.3897 22.06056,5.3181 C20.29056,4.2462 18.21846,3.7101 15.84456,3.7101 C14.35026,3.7101 12.91566,3.9942 11.54016,4.5621 C10.16466,5.13 8.94426,5.9244 7.87926,6.9456 C6.81486,7.9671 5.98926,9.126 5.40276,10.4232 C4.81626,11.7198 4.52286,13.0875 4.52286,14.5254 M0.23076,14.5254 C0.25206,12.5163 0.69996,10.6383 1.57656,8.8911 C2.45256,7.1439 3.62376,5.622 5.08956,4.3254 C6.55566,3.0288 8.19636,2.0121 10.01136,1.2762 C11.82666,0.5403 13.65606,0.1425 15.49896,0.0819 C17.34096,0.0819 19.17786,0.3762 21.00876,0.9639 C22.84026,1.5522 24.53916,2.4573 26.10516,3.6804 C27.67176,4.9032 28.95516,6.4635 29.95656,8.3619 C30.95766,10.2603 31.52826,12.4389 31.66776,14.898 C31.66776,16.7526 31.28586,18.5817 30.52206,20.3859 C29.75796,22.1901 28.67286,23.8194 27.26706,25.2744 C25.86156,26.7294 24.20796,27.8817 22.30686,28.7316 C20.40576,29.5818 18.38046,30.0066 16.23186,30.0066 L16.19016,30.0066 C14.15166,29.9865 12.18276,29.6286 10.28376,28.9329 C8.38476,28.2375 6.67296,27.2196 5.14746,25.8792 C3.62196,24.5385 2.42106,22.9062 1.54506,20.9808 C0.66876,19.056 0.23076,16.9038 0.23076,14.5254" id="Fill-16" fill="#010202" mask="url(#mask-4)"></path>
                    </g>
                    <path d="M237.94425,29.7303 L237.94425,4.422 C237.94425,3.1791 238.27395,2.2083 238.93335,1.5093 C239.59275,0.8103 240.40755,0.4611 241.37775,0.4611 C242.95485,0.4611 244.12395,1.2168 244.88475,2.7285 L255.78225,24.237 L255.78225,0.7938 L259.81305,0.7938 L259.81305,27.3819 C259.81305,28.215 259.51965,28.8573 258.93375,29.3073 C258.34755,29.7573 257.62515,29.9823 256.76625,29.9823 C255.95025,29.9823 255.18045,29.7807 254.45805,29.3775 C253.73595,28.9743 253.24935,28.4436 252.99765,27.7851 L241.97445,5.7825 L241.97445,29.7303 L237.94425,29.7303 Z" id="Fill-19" fill="#010202"></path>
                    <g id="Group-23" transform="translate(267.000000, 0.517800)">
                        <mask id="mask-6" fill="white">
                            <use xlink:href="#path-5"></use>
                        </mask>
                        <g id="Clip-22"></g>
                        <path d="M0.23088,14.93085 C0.36348,11.26875 1.32138,8.34255 3.10458,6.15165 C4.88778,3.96165 6.95688,2.43465 9.31218,1.57095 C11.66778,0.70785 13.87188,0.27585 15.92328,0.27585 L19.01178,0.27585 L19.01178,3.90405 L15.75588,3.90405 C13.54368,4.01835 11.60508,4.51065 9.94038,5.38065 C8.27598,6.25125 6.98148,7.31085 6.05658,8.56065 C5.13198,9.81045 4.59288,11.08065 4.43928,12.37095 L19.01178,12.37095 L19.01178,16.08975 L4.43928,16.08975 C4.56468,17.51955 5.02698,18.93105 5.82648,20.32395 C6.62538,21.71655 7.78218,22.90065 9.29688,23.87745 C10.81098,24.85425 12.62238,25.42335 14.72988,25.58445 L19.01178,25.58445 L19.01178,29.21235 L15.41058,29.21235 C13.60278,29.21235 11.80908,28.89495 10.02948,28.26045 C8.24988,27.62505 6.61848,26.68665 5.13558,25.44315 C3.65238,24.19965 2.46948,22.68645 1.58688,20.90265 C0.70368,19.11855 0.25188,17.12805 0.23088,14.93085" id="Fill-21" fill="#010202" mask="url(#mask-6)"></path>
                    </g>
                    <path d="M4.82742,44.5806 C4.82742,45.132 4.55202,45.4074 4.00092,45.4074 C3.44982,45.4074 3.17412,45.1416 3.17412,44.6085 L3.17412,44.4429 C3.17412,43.9101 3.44982,43.6434 4.00092,43.6434 C4.55202,43.6434 4.82742,43.9194 4.82742,44.4702 L4.82742,44.5806 Z M4.82742,41.8242 C4.82742,42.3753 4.55202,42.6513 4.00092,42.6513 C3.44982,42.6513 3.17412,42.3849 3.17412,41.8515 L3.17412,38.4345 C3.17412,37.9014 3.44982,37.6347 4.00092,37.6347 C4.55202,37.6347 4.82742,37.9107 4.82742,38.4615 L4.82742,41.8242 Z" id="Fill-24" fill="#010202"></path>
                    <path d="M23.23245,44.70717 C23.23245,45.17457 22.95705,45.40737 22.40595,45.40737 C21.87285,45.40737 21.59745,45.16587 21.57915,44.68287 L21.57915,43.91007 L21.57915,39.32037 C21.57915,38.85357 21.85485,38.62017 22.40595,38.62017 C22.95705,38.62017 23.23245,38.86197 23.23245,39.34467 L23.23245,44.70717 Z" id="Fill-26" fill="#010202"></path>
                    <path d="M40.5627,42.00159 C40.5627,42.98409 40.2321,43.80549 39.5706,44.46549 C39.2217,44.82009 38.8173,45.06129 38.3583,45.19029 L36.7878,45.40749 L26.7864,45.40749 C26.2533,45.40749 25.9872,45.16599 25.9872,44.68299 C25.9872,44.19969 26.2626,43.95819 26.8137,43.95819 L36.54,43.95819 C36.8154,43.95819 37.0725,43.93389 37.3116,43.88559 C38.2848,43.67679 38.7717,43.04019 38.7717,41.97759 C38.7717,40.93119 38.2848,40.31079 37.3116,40.11759 C37.0725,40.06929 36.8154,40.04529 36.54,40.04529 L26.8137,40.04529 C26.2626,40.04529 25.9872,39.80379 25.9872,39.32019 L25.9872,39.17559 L25.9872,38.54769 L25.9872,36.37359 C25.9872,35.90709 26.2626,35.67309 26.8137,35.67309 C27.3648,35.67309 27.6405,35.91489 27.6405,36.39759 L27.6405,37.17069 L27.6405,38.59569 L36.7878,38.59569 C37.1553,38.61219 37.6788,38.68449 38.3583,38.81349 C38.8173,38.94249 39.2217,39.18399 39.5706,39.53799 C40.2321,40.19829 40.5627,41.01999 40.5627,42.00159" id="Fill-28" fill="#010202"></path>
                    <path d="M58.41681,43.20951 C58.41681,43.82151 58.17321,44.34081 57.68661,44.76741 C57.19971,45.19431 56.61651,45.40731 55.93701,45.40731 L46.15581,45.40731 C45.45771,45.40731 44.87001,45.19431 44.39241,44.76741 C43.91481,44.34081 43.67601,43.82151 43.67601,43.20951 L43.67601,38.59581 L45.41181,38.59581 L45.41181,43.21311 C45.41181,43.69371 45.74241,43.93401 46.40391,43.93401 L49.87551,43.93401 C50.09601,43.93401 50.22411,43.85391 50.26131,43.69371 L50.26131,43.14081 L50.26131,38.59581 L51.91431,38.59581 L51.91431,43.06461 L51.91431,43.66851 C51.95091,43.84581 52.07961,43.93401 52.30011,43.93401 L55.96461,43.93401 C56.42361,43.83741 56.65341,43.60401 56.65341,43.23351 L56.65341,38.59581 L58.41681,38.59581 L58.41681,43.20951 Z" id="Fill-30" fill="#010202"></path>
                    <path d="M89.35842,40.76997 L89.35842,45.40737 L87.59502,45.40737 L87.59502,40.76997 C87.59502,40.28697 87.26442,40.04517 86.60322,40.04517 L75.30642,40.04517 C74.75532,40.04517 74.47992,39.80367 74.47992,39.32037 C74.47992,38.83767 74.73702,38.59587 75.25152,38.59587 L86.85102,38.59587 C87.54912,38.59587 88.14132,38.80977 88.62822,39.23607 C89.11482,39.66297 89.35842,40.17447 89.35842,40.76997" id="Fill-32" fill="#010202"></path>
                    <path d="M93.98718,44.70717 C93.98718,45.17457 93.71178,45.40737 93.16068,45.40737 C92.62758,45.40737 92.35218,45.16587 92.33388,44.68287 L92.33388,43.91007 L92.33388,39.32037 C92.33388,38.85357 92.60958,38.62017 93.16068,38.62017 C93.71178,38.62017 93.98718,38.86197 93.98718,39.34467 L93.98718,44.70717 Z" id="Fill-34" fill="#010202"></path>
                    <path d="M111.34515,42.00159 C111.34515,42.98409 111.01365,43.80549 110.35155,44.46549 C110.00145,44.82009 109.59645,45.06129 109.13655,45.19029 L107.53545,45.40749 L97.54305,45.40749 C97.00905,45.40749 96.74205,45.16599 96.74205,44.68299 C96.74205,44.19969 97.01805,43.95819 97.57035,43.95819 L107.31765,43.95819 C107.59365,43.95819 107.85135,43.93389 108.09075,43.88559 C109.06635,43.67679 109.55415,43.04019 109.55415,41.97759 C109.55415,40.93119 109.06725,40.31079 108.09405,40.11759 C107.85495,40.06929 107.59785,40.04529 107.32245,40.04529 L99.46995,40.04529 C98.84505,40.04529 98.53305,40.29519 98.53305,40.79409 L98.53305,41.32539 C98.56965,41.45469 98.69835,41.51889 98.91885,41.51889 L103.65795,41.51889 C104.20875,41.51889 104.48445,41.76009 104.48445,42.24339 C104.48445,42.72639 104.21805,42.96819 103.68555,42.96819 L97.87185,42.96819 C97.26555,42.96819 96.90765,42.75849 96.79725,42.33969 C96.76005,42.21099 96.74205,41.68779 96.74205,40.77009 C96.74205,40.17429 96.98535,39.66279 97.47225,39.23589 C97.95885,38.80959 98.55135,38.59569 99.24945,38.59569 L107.54295,38.59569 C107.92845,38.61219 108.46125,38.68449 109.14075,38.81349 C109.59975,38.94249 110.00415,39.18399 110.35305,39.53799 C111.01455,40.19829 111.34515,41.01999 111.34515,42.00159" id="Fill-36" fill="#010202"></path>
                    <path d="M116.3322,42.29133 C116.3322,42.75873 116.0568,42.99213 115.5057,42.99213 C114.9726,42.99213 114.6972,42.75033 114.6789,42.26733 L114.6789,41.49453 L114.6789,39.32043 C114.6789,38.85363 114.9546,38.62023 115.5057,38.62023 C116.0568,38.62023 116.3322,38.86173 116.3322,39.34473 L116.3322,40.11753 L116.3322,42.29133 Z" id="Fill-38" fill="#010202"></path>
                    <path d="M132.31233,41.97756 C132.31233,40.93116 131.82543,40.31076 130.85193,40.11756 C130.61313,40.06926 130.35603,40.04526 130.08063,40.04526 L123.08223,40.04526 C122.80653,40.04526 122.54913,40.06926 122.31063,40.11756 C121.33683,40.31076 120.85023,40.93116 120.85023,41.97756 C120.85023,43.04016 121.33683,43.67676 122.31063,43.88556 C122.54913,43.93386 122.80653,43.95846 123.08223,43.95846 L130.08063,43.95846 C130.35603,43.95846 130.61313,43.93386 130.85193,43.88556 C131.82543,43.67676 132.31233,43.04016 132.31233,41.97756 M134.10333,42.00156 C134.10333,42.98406 133.77273,43.80546 133.11153,44.46546 C132.76233,44.82006 132.35793,45.06126 131.89923,45.19026 L130.32843,45.40746 L122.83413,45.40746 C122.46663,45.37536 121.94313,45.30306 121.26363,45.19026 C120.80433,45.06126 120.39993,44.82006 120.05133,44.46546 C119.39013,43.80546 119.05953,42.98406 119.05953,42.00156 C119.05953,41.01996 119.39013,40.19826 120.05133,39.53796 C120.39993,39.18396 120.80433,38.94246 121.26363,38.81346 L122.83413,38.59596 L130.32843,38.59596 C130.69563,38.61216 131.21913,38.68446 131.89923,38.81346 C132.35793,38.94246 132.76233,39.18396 133.11153,39.53796 C133.77273,40.19826 134.10333,41.01996 134.10333,42.00156" id="Fill-40" fill="#010202"></path>
                    <path d="M138.67707,44.70717 C138.67707,45.17457 138.40167,45.40737 137.85057,45.40737 C137.31747,45.40737 137.04207,45.16587 137.02377,44.68287 L137.02377,43.91007 L137.02377,41.73627 C137.02377,41.26917 137.29947,41.03577 137.85057,41.03577 C138.40167,41.03577 138.67707,41.27697 138.67707,41.76027 L138.67707,42.53307 L138.67707,44.70717 Z M151.65447,40.76997 L151.65447,45.40737 L149.89107,45.40737 L149.89107,40.76997 C149.89107,40.28697 149.56017,40.04517 148.89927,40.04517 L137.60247,40.04517 C137.05137,40.04517 136.77597,39.80367 136.77597,39.32037 C136.77597,38.83767 137.03307,38.59587 137.54727,38.59587 L149.14707,38.59587 C149.84517,38.59587 150.43737,38.80977 150.92427,39.23607 C151.41057,39.66297 151.65447,40.17447 151.65447,40.76997 L151.65447,40.76997 Z" id="Fill-42" fill="#010202"></path>
                    <path d="M156.28332,44.70717 C156.28332,45.17457 156.00762,45.40737 155.45652,45.40737 C154.92372,45.40737 154.64802,45.16587 154.62972,44.68287 L154.62972,43.91007 L154.62972,39.32037 C154.62972,38.85357 154.90542,38.62017 155.45652,38.62017 C156.00762,38.62017 156.28332,38.86197 156.28332,39.34467 L156.28332,44.70717 Z" id="Fill-44" fill="#010202"></path>
                    <path d="M182.70558,44.70717 C182.70558,45.17457 182.42988,45.40737 181.87878,45.40737 C181.34598,45.40737 181.07058,45.16587 181.05228,44.68287 L181.05228,43.91007 L181.05228,39.32037 C181.05228,38.85357 181.32798,38.62017 181.87878,38.62017 C182.42988,38.62017 182.70558,38.86197 182.70558,39.34467 L182.70558,44.70717 Z" id="Fill-46" fill="#010202"></path>
                    <path d="M200.0631,42.00159 C200.0631,42.98409 199.7319,43.80549 199.0695,44.46549 C198.7194,44.82009 198.3144,45.06129 197.8548,45.19029 L196.2537,45.40749 L186.261,45.40749 C185.7273,45.40749 185.4603,45.16599 185.4603,44.68299 C185.4603,44.19969 185.736,43.95819 186.2886,43.95819 L196.0356,43.95819 C196.3116,43.95819 196.5696,43.93389 196.809,43.88559 C197.7843,43.67679 198.2721,43.04019 198.2721,41.97759 C198.2721,40.93119 197.7852,40.31079 196.812,40.11759 C196.5729,40.06929 196.3161,40.04529 196.0407,40.04529 L188.1879,40.04529 C187.5633,40.04529 187.2513,40.29519 187.2513,40.79409 L187.2513,41.32539 C187.2876,41.45469 187.4166,41.51889 187.6368,41.51889 L192.3759,41.51889 C192.927,41.51889 193.2027,41.76009 193.2027,42.24339 C193.2027,42.72639 192.936,42.96819 192.4035,42.96819 L186.5898,42.96819 C185.9835,42.96819 185.6256,42.75849 185.5155,42.33969 C185.4783,42.21099 185.4603,41.68779 185.4603,40.77009 C185.4603,40.17429 185.7036,39.66279 186.1905,39.23589 C186.6768,38.80959 187.2693,38.59569 187.9677,38.59569 L196.2609,38.59569 C196.6467,38.61219 197.1792,38.68449 197.859,38.81349 C198.318,38.94249 198.7221,39.18399 199.0713,39.53799 C199.7325,40.19829 200.0631,41.01999 200.0631,42.00159" id="Fill-48" fill="#010202"></path>
                    <path d="M217.64181,42.00159 C217.64181,42.98409 217.31121,43.80549 216.65001,44.46549 C216.30081,44.82009 215.89671,45.06129 215.43771,45.19029 L213.86721,45.40749 L203.86551,45.40749 C203.33271,45.40749 203.06661,45.16599 203.06661,44.68299 C203.06661,44.19969 203.34201,43.95819 203.89311,43.95819 L213.61911,43.95819 C213.89481,43.95819 214.15161,43.93389 214.39071,43.88559 C215.36391,43.67679 215.85081,43.04019 215.85081,41.97759 C215.85081,40.93119 215.36391,40.31079 214.39071,40.11759 C214.15161,40.06929 213.89481,40.04529 213.61911,40.04529 L203.89311,40.04529 C203.34201,40.04529 203.06661,39.80379 203.06661,39.32019 L203.06661,39.17559 L203.06661,38.54769 L203.06661,36.37359 C203.06661,35.90709 203.34201,35.67309 203.89311,35.67309 C204.44421,35.67309 204.71961,35.91489 204.71961,36.39759 L204.71961,37.17069 L204.71961,38.59569 L213.86721,38.59569 C214.23441,38.61219 214.75791,38.68449 215.43771,38.81349 C215.89671,38.94249 216.30081,39.18399 216.65001,39.53799 C217.31121,40.19829 217.64181,41.01999 217.64181,42.00159" id="Fill-50" fill="#010202"></path>
                    <path d="M235.49622,43.20951 C235.49622,43.82151 235.25262,44.34081 234.76602,44.76741 C234.27912,45.19431 233.69562,45.40731 233.01642,45.40731 L223.23522,45.40731 C222.53682,45.40731 221.94942,45.19431 221.47182,44.76741 C220.99392,44.34081 220.75542,43.82151 220.75542,43.20951 L220.75542,38.59581 L222.49122,38.59581 L222.49122,43.23351 C222.49122,43.71681 222.82182,43.95831 223.48302,43.95831 L233.04402,43.95831 C233.50272,43.86171 233.73282,43.61991 233.73282,43.23351 L233.73282,40.04511 L230.34372,40.04511 C229.81092,40.04511 229.54482,39.80781 229.54482,39.33291 C229.54482,38.85831 229.82022,38.61261 230.37132,38.59581 L231.25302,38.59581 L235.49622,38.59581 L235.49622,43.20951 Z" id="Fill-52" fill="#010202"></path>
                    <path d="M266.05197,42.00159 C266.05197,42.98409 265.72137,43.80549 265.06017,44.46549 C264.71097,44.82009 264.30687,45.06129 263.84787,45.19029 L262.27737,45.40749 L252.27567,45.40749 C251.74287,45.40749 251.47677,45.16599 251.47677,44.68299 C251.47677,44.19969 251.75217,43.95819 252.30327,43.95819 L262.02927,43.95819 C262.30497,43.95819 262.56177,43.93389 262.80087,43.88559 C263.77407,43.67679 264.26097,43.04019 264.26097,41.97759 C264.26097,40.93119 263.77407,40.31079 262.80087,40.11759 C262.56177,40.06929 262.30497,40.04529 262.02927,40.04529 L252.30327,40.04529 C251.75217,40.04529 251.47677,39.80379 251.47677,39.32019 L251.47677,39.17559 L251.47677,38.54769 L251.47677,36.37359 C251.47677,35.90709 251.75217,35.67309 252.30327,35.67309 C252.85437,35.67309 253.12977,35.91489 253.12977,36.39759 L253.12977,37.17069 L253.12977,38.59569 L262.27737,38.59569 C262.64457,38.61219 263.16807,38.68449 263.84787,38.81349 C264.30687,38.94249 264.71097,39.18399 265.06017,39.53799 C265.72137,40.19829 266.05197,41.01999 266.05197,42.00159" id="Fill-54" fill="#010202"></path>
                    <path d="M283.65792,42.00159 C283.65792,42.98409 283.32732,43.80549 282.66612,44.46549 C282.31692,44.82009 281.91282,45.06129 281.45382,45.19029 L279.88332,45.40749 L269.88162,45.40749 C269.34882,45.40749 269.08272,45.16599 269.08272,44.68299 C269.08272,44.19969 269.35812,43.95819 269.90922,43.95819 L279.63522,43.95819 C279.91092,43.95819 280.16772,43.93389 280.40682,43.88559 C281.38002,43.67679 281.86692,43.04019 281.86692,41.97759 C281.86692,40.93119 281.38002,40.31079 280.40682,40.11759 C280.16772,40.06929 279.91092,40.04529 279.63522,40.04529 L269.90922,40.04529 C269.35812,40.04529 269.08272,39.80379 269.08272,39.32019 C269.08272,38.83749 269.34882,38.59569 269.88162,38.59569 L279.88332,38.59569 C280.25052,38.61219 280.77402,38.68449 281.45382,38.81349 C281.91282,38.94249 282.31692,39.18399 282.66612,39.53799 C283.32732,40.19829 283.65792,41.01999 283.65792,42.00159" id="Fill-56" fill="#010202"></path>
                    <g id="Group-60" transform="translate(176.400000, 38.317800)">
                        <mask id="mask-8" fill="white">
                            <use xlink:href="#path-7"></use>
                        </mask>
                        <g id="Clip-59"></g>
                        <path d="M1.83372,0.93429 C1.83372,0.49839 1.51212,0.27999 0.86922,0.27999 C0.31812,0.27999 0.04272,0.48429 0.04272,0.89199 L0.05142,10.78809 C0.05142,11.19579 0.32682,11.40009 0.87762,11.40009 C1.52052,11.40009 1.84212,11.18169 1.84212,10.74579 L1.83372,0.93429 Z" id="Fill-58" fill="#010202" mask="url(#mask-8)"></path>
                    </g>
                </g>
            </g>
        </g>
    </g>
</svg>